<svg width="32" height="32" viewBox="0 0 32 32" fill="none" xmlns="http://www.w3.org/2000/svg">
<path d="M16 7C16.276 7 16.5 7.224 16.5 7.5C16.5 7.776 16.275 8 16 8C10.673 8 6 10.804 6 14C6 14.276 5.776 14.5 5.5 14.5C5.224 14.5 5 14.276 5 14C5 10.206 10.037 7 16 7ZM16 2C7.163 2 0 7.373 0 14C0 18.127 2.779 21.766 7.008 23.926C7.008 23.953 7 23.971 7 24C7 25.793 5.661 27.723 5.072 28.736C5.073 28.736 5.074 28.736 5.074 28.736C5.027 28.846 5 28.967 5 29.094C5 29.594 5.405 30 5.906 30C6 30 6.165 29.975 6.161 29.986C9.286 29.474 12.23 26.603 12.914 25.771C13.913 25.918 14.943 26 16 26C24.835 26 32 20.627 32 14C32 7.373 24.836 2 16 2ZM16 24C15.083 24 14.142 23.93 13.204 23.793C13.107 23.777 13.01 23.772 12.914 23.772C12.32 23.772 11.751 24.036 11.368 24.502C10.94 25.023 9.722 26.186 8.283 27.041C8.673 26.146 8.978 25.143 8.999 24.109C9.005 24.045 9.008 23.98 9.008 23.925C9.008 23.173 8.587 22.486 7.918 22.144C4.212 20.252 2 17.207 2 14C2 8.486 8.28 4 16 4C23.718 4 30 8.486 30 14C30 19.514 23.719 24 16 24Z" fill="#BDBDBD"/>
</svg>
