<svg width="32" height="33" viewBox="0 0 32 33" fill="none" xmlns="http://www.w3.org/2000/svg">
<path d="M27 5.496L5 5.5C4.447 5.5 4 5.943 4 6.496V20.496C4 21.049 4.447 21.496 5 21.496H27C27.553 21.496 28 21.049 28 20.496V6.496C28 5.943 27.553 5.496 27 5.496ZM27 20.5H5V6.496H27V20.5ZM29 1.5H3C1.343 1.5 0 2.842 0 4.5V24.5C0 26.154 1.338 27.494 2.99 27.498H13V28.715L6.758 29.526C6.312 29.637 6 30.037 6 30.496C6 31.049 6.447 31.496 7 31.496H25C25.553 31.496 26 31.049 26 30.496C26 30.037 25.688 29.637 25.242 29.525L19 28.715V27.498H29.01C30.662 27.494 32 26.154 32 24.5V4.5C32 2.842 30.656 1.5 29 1.5ZM30 24.5C30 25.051 29.551 25.5 29 25.5H3C2.448 25.5 2 25.051 2 24.5V4.5C2 3.948 2.448 3.5 3 3.5H29C29.551 3.5 30 3.948 30 4.5V24.5Z" fill="#BDBDBD"/>
</svg>
