<svg width="32" height="32" viewBox="0 0 32 32" fill="none" xmlns="http://www.w3.org/2000/svg">
<path d="M31.924 18.455L27.922 3.449C27.68 2.596 26.889 2 26 2H6C5.11 2 4.32 2.596 4.078 3.449L0.076 18.455C0.025 18.637 0 18.82 0 19V26C0 28.209 1.791 30 4 30H28C30.209 30 32 28.209 32 26V19C32 18.82 31.975 18.637 31.924 18.455ZM30 26C30 27.102 29.102 28 28 28H4C2.897 28 2 27.102 2 26V19L6.001 3.999H25.998L30 19V26ZM23.742 6H8.258C7.805 6 7.408 6.305 7.291 6.743L3.846 18.743C3.767 19.044 3.83 19.364 4.02 19.61C4.21 19.856 4.502 20 4.812 20H9.38L10.827 22.895C11.167 23.572 11.859 24 12.617 24H19.383C20.141 24 20.832 23.572 21.172 22.895L22.619 20H27.187C27.498 20 27.791 19.855 27.98 19.609C28.169 19.363 28.232 19.043 28.154 18.742L24.709 6.742C24.592 6.304 24.195 6 23.742 6ZM24.281 18H22.619C21.857 18 21.172 18.422 20.83 19.105L19.383 22H12.617L11.17 19.105C10.828 18.422 10.143 18 9.381 18H5.334L8.258 7H23.742L26.666 18H24.281Z" fill="#BDBDBD"/>
</svg>
